<svg width="18" height="18" viewBox="0 0 18 18" fill="none" xmlns="http://www.w3.org/2000/svg">
<g clip-path="url(#clip0_301_382)">
<path d="M14.25 6V5.25C14.25 3.85761 13.6969 2.52226 12.7123 1.53769C11.7277 0.553124 10.3924 0 9 0C7.60761 0 6.27225 0.553124 5.28769 1.53769C4.30312 2.52226 3.75 3.85761 3.75 5.25V6H1.5V15.75C1.5 16.3467 1.73705 16.919 2.15901 17.341C2.58097 17.7629 3.15326 18 3.75 18H14.25C14.8467 18 15.419 17.7629 15.841 17.341C16.2629 16.919 16.5 16.3467 16.5 15.75V6H14.25ZM5.25 5.25C5.25 4.25544 5.64509 3.30161 6.34835 2.59835C7.05161 1.89509 8.00544 1.5 9 1.5C9.99456 1.5 10.9484 1.89509 11.6516 2.59835C12.3549 3.30161 12.75 4.25544 12.75 5.25V6H5.25V5.25ZM15 15.75C15 15.9489 14.921 16.1397 14.7803 16.2803C14.6397 16.421 14.4489 16.5 14.25 16.5H3.75C3.55109 16.5 3.36032 16.421 3.21967 16.2803C3.07902 16.1397 3 15.9489 3 15.75V7.5H15V15.75Z" fill="#374957"/>
<path d="M9.75001 10.4998H8.25V13.4998H9.75001V10.4998Z" fill="#374957"/>
</g>
<defs>
<clipPath id="clip0_301_382">
<rect width="18" height="18" fill="white"/>
</clipPath>
</defs>
</svg>
