<svg width="795" height="185" viewBox="0 0 795 185" fill="none" xmlns="http://www.w3.org/2000/svg">
<path d="M8.03251 119.819H5.58691V30.4826C5.58691 15.9177 13.8695 6.15527 31.259 6.15527C46.8378 6.15527 53.7783 14.101 58.4353 26.8403L91.1153 98.1541C92.4395 100.803 94.5923 102.79 98.2405 102.79C102.384 102.79 104.87 100.308 104.87 96.4948V22.5998C104.87 18.7656 106.396 15.0884 109.111 12.3772C111.827 9.66598 115.51 8.14283 119.35 8.14283H124.593V97.3357C124.593 112.063 116.139 121.82 98.9205 121.82C83.3417 121.82 76.212 113.884 71.5731 101.135L38.9245 29.8171C37.4337 26.5075 35.4475 25.0191 31.9661 25.0191C27.4892 25.0191 25.1742 27.5013 25.1742 31.4719V102.732C25.1742 104.978 24.7307 107.202 23.8689 109.277C23.0071 111.352 21.744 113.237 20.1519 114.824C18.5598 116.411 16.6699 117.669 14.5903 118.526C12.5107 119.384 10.2823 119.823 8.03251 119.819V119.819Z" fill="#FF3E3E"/>
<path d="M98.889 127.243C78.0766 127.243 70.6362 114.441 66.5062 103.195L33.9477 32.0743C33.2181 30.451 33.0199 30.451 31.9345 30.451C31.5123 30.4271 31.0895 30.4883 30.6914 30.6309C30.6033 30.9021 30.5651 31.187 30.5788 31.4718V96.7105C30.5777 104.282 27.5646 111.543 22.2022 116.897C16.8399 122.251 9.56731 125.259 1.9838 125.26H0.137207V30.4825C0.137207 11.848 11.7707 0.727539 31.2634 0.727539C51.9227 0.727539 59.3451 13.5298 63.4751 24.7761L95.9885 95.8246C96.7317 97.2681 97.3397 97.3805 98.2134 97.3805C98.5908 97.4111 98.9695 97.3429 99.3124 97.1826C99.385 96.9701 99.417 96.7459 99.407 96.5216V27.3438C99.407 20.8114 102.006 14.5466 106.632 9.92707C111.258 5.30759 117.532 2.7118 124.075 2.7106H130.002V97.3355C130.011 116.06 118.377 127.243 98.889 127.243ZM31.9345 19.5914C37.4518 19.5914 41.4647 22.2894 43.8563 27.5911L76.5768 99.0893L76.6534 99.2961C81.1978 111.766 87.2195 116.384 98.889 116.384C112.32 116.384 119.134 109.971 119.134 97.3265V13.5747H110.293V96.4992C110.293 103.397 105.339 108.218 98.2224 108.218C92.9574 108.218 88.6968 105.52 86.2331 100.573L86.1521 100.402L53.4135 28.9041L53.3369 28.7018C48.797 16.2278 42.8159 11.5917 31.2679 11.5917C17.8329 11.5917 11.0005 17.9501 11.0005 30.478V114.423H19.6795V31.4718C19.702 24.3669 24.6157 19.5914 31.9345 19.5914Z" fill="#FF3E3E"/>
<path d="M8.03251 119.819H5.58691V30.4826C5.58691 15.9177 13.8695 6.15527 31.259 6.15527C46.8378 6.15527 53.7783 14.101 58.4353 26.8403L91.1153 98.1541C92.4395 100.803 94.5923 102.79 98.2405 102.79C102.384 102.79 104.87 100.308 104.87 96.4948V22.5998C104.87 18.7656 106.396 15.0884 109.111 12.3772C111.827 9.66598 115.51 8.14283 119.35 8.14283H124.593V97.3357C124.593 112.063 116.139 121.82 98.9205 121.82C83.3417 121.82 76.212 113.884 71.5731 101.135L38.9245 29.8171C37.4337 26.5075 35.4475 25.0191 31.9661 25.0191C27.4892 25.0191 25.1742 27.5013 25.1742 31.4719V102.732C25.1742 104.978 24.7307 107.202 23.8689 109.277C23.0071 111.352 21.744 113.237 20.1519 114.824C18.5598 116.411 16.6699 117.669 14.5903 118.526C12.5107 119.384 10.2823 119.823 8.03251 119.819V119.819Z" fill="#FF3E3E"/>
<path d="M98.889 127.243C78.0766 127.243 70.6362 114.441 66.5062 103.195L33.9477 32.0743C33.2181 30.451 33.0199 30.451 31.9345 30.451C31.5123 30.4271 31.0895 30.4883 30.6914 30.6309C30.6033 30.9021 30.5651 31.187 30.5788 31.4718V96.7105C30.5777 104.282 27.5646 111.543 22.2022 116.897C16.8399 122.251 9.56731 125.259 1.9838 125.26H0.137207V30.4825C0.137207 11.848 11.7707 0.727539 31.2634 0.727539C51.9227 0.727539 59.3451 13.5298 63.4751 24.7761L95.9885 95.8246C96.7317 97.2681 97.3397 97.3805 98.2134 97.3805C98.5908 97.4111 98.9695 97.3429 99.3124 97.1826C99.385 96.9701 99.417 96.7459 99.407 96.5216V27.3438C99.407 20.8114 102.006 14.5466 106.632 9.92707C111.258 5.30759 117.532 2.7118 124.075 2.7106H130.002V97.3355C130.011 116.06 118.377 127.243 98.889 127.243ZM31.9345 19.5914C37.4518 19.5914 41.4647 22.2894 43.8563 27.5911L76.5768 99.0893L76.6534 99.2961C81.1978 111.766 87.2195 116.384 98.889 116.384C112.32 116.384 119.134 109.971 119.134 97.3265V13.5747H110.293V96.4992C110.293 103.397 105.339 108.218 98.2224 108.218C92.9574 108.218 88.6968 105.52 86.2331 100.573L86.1521 100.402L53.4135 28.9041L53.3369 28.7018C48.797 16.2278 42.8159 11.5917 31.2679 11.5917C17.8329 11.5917 11.0005 17.9501 11.0005 30.478V114.423H19.6795V31.4718C19.702 24.3669 24.6157 19.5914 31.9345 19.5914Z" fill="#FF3E3E"/>
<path d="M259.721 120.708H236.641L198.035 62.3625V120.708H174.955V26.1104H198.035L236.641 84.7499V26.1104H259.721V120.708Z" fill="#494949"/>
<path d="M349.117 45.5171V120.708H326.025V110.467C323.574 113.891 320.304 116.649 316.513 118.49C312.385 120.543 307.826 121.584 303.214 121.527C297.877 121.635 292.61 120.307 287.963 117.684C283.513 115.077 279.942 111.205 277.706 106.562C275.278 101.713 274.064 96.011 274.064 89.4545V45.5171H297.006V86.3429C297.006 91.3789 298.312 95.2883 300.924 98.0708C303.535 100.853 307.044 102.245 311.45 102.245C315.952 102.245 319.498 100.851 322.089 98.0645C324.68 95.2778 325.983 91.3685 326 86.3366V45.5171H349.117Z" fill="#494949"/>
<path d="M377.079 118.421C372.3 116.442 368.115 113.26 364.932 109.186C362.007 105.399 360.266 100.835 359.926 96.0649H382.737C382.852 97.3201 383.238 98.5355 383.868 99.628C384.497 100.72 385.356 101.664 386.385 102.394C388.697 104.06 391.496 104.912 394.345 104.819C397.224 104.819 399.452 104.258 401.029 103.138C401.758 102.665 402.357 102.017 402.769 101.252C403.181 100.488 403.394 99.6323 403.388 98.7641C403.388 96.6106 402.264 95.0152 400.015 93.978C397.767 92.9408 394.122 91.7953 389.082 90.5415C384.497 89.5283 379.986 88.2005 375.584 86.5676C371.979 85.171 368.779 82.9015 366.271 79.9633C363.664 76.9517 362.36 72.8861 362.36 67.7668C362.326 63.5657 363.572 59.4536 365.934 55.9764C368.32 52.4274 371.829 49.6199 376.46 47.5538C381.091 45.4877 386.602 44.4463 392.994 44.4297C402.443 44.4297 409.891 46.7665 415.335 51.4402C420.78 56.1138 423.909 62.3121 424.722 70.0349H403.401C403.268 68.8254 402.895 67.6545 402.304 66.5904C401.713 65.5263 400.916 64.5902 399.959 63.8367C398.027 62.3079 395.484 61.5435 392.33 61.5435C389.635 61.5435 387.566 62.0601 386.122 63.0931C385.434 63.5631 384.875 64.1988 384.498 64.9414C384.12 65.684 383.936 66.5096 383.963 67.3419C383.963 69.4913 385.11 71.1075 387.405 72.1905C389.7 73.2735 393.277 74.3524 398.138 75.4271C402.763 76.563 407.315 77.9798 411.768 79.6696C415.359 81.1212 418.536 83.4347 421.017 86.4052C423.667 89.5043 425.039 93.6698 425.135 98.9016C425.19 103.127 423.887 107.259 421.418 110.692C418.948 114.145 415.402 116.853 410.779 118.815C406.157 120.777 400.781 121.766 394.652 121.783C388.077 121.787 382.219 120.666 377.079 118.421Z" fill="#494949"/>
<path d="M443.615 62.6244C446.26 57.0958 450.408 52.4212 455.587 49.1344C460.651 45.9805 466.515 44.3433 472.484 44.4171C477.338 44.3112 482.141 45.4241 486.452 47.6536C490.238 49.6056 493.43 52.5358 495.695 56.1387V45.5167H518.781V120.708H495.695V110.086C493.351 113.677 490.118 116.602 486.308 118.577C481.994 120.806 477.19 121.919 472.334 121.814C466.409 121.87 460.595 120.208 455.599 117.028C450.407 113.691 446.255 108.967 443.615 103.394C440.695 97.5081 439.234 90.7017 439.234 82.9748C439.234 75.2478 440.695 68.4644 443.615 62.6244ZM490.858 69.4974C489.348 67.9281 487.538 66.6784 485.534 65.8228C483.531 64.9672 481.375 64.5233 479.196 64.5174C477.017 64.5116 474.859 64.944 472.851 65.7889C470.843 66.6337 469.026 67.8737 467.509 69.4349C464.313 72.7173 462.715 77.2306 462.715 82.9748C462.715 88.7189 464.313 93.2802 467.509 96.6584C469.006 98.2475 470.813 99.5149 472.818 100.383C474.823 101.251 476.984 101.702 479.17 101.708C481.355 101.714 483.519 101.275 485.528 100.417C487.538 99.5597 489.351 98.3019 490.858 96.7208C494.049 93.3884 495.645 88.8523 495.645 83.1122C495.645 77.3722 494.058 72.8339 490.883 69.4974H490.858Z" fill="#494949"/>
<path d="M563.108 102.926H593.341V120.708H540.028V26.1104H563.108V102.926Z" fill="#494949"/>
<path d="M709.992 26.1104V120.708H686.912V63.9745L665.722 120.708H647.098L625.77 63.8496V120.708H602.69V26.1104H629.957L656.541 91.6229L682.863 26.1291L709.992 26.1104Z" fill="#494949"/>
<path d="M740.531 118.284C735.307 116.232 730.757 112.771 727.389 108.287C724.098 103.888 722.364 98.5872 722.189 92.3849H746.752C747.115 95.888 748.331 98.5623 750.4 100.408C752.47 102.253 755.169 103.171 758.499 103.163C761.915 103.163 764.615 102.378 766.596 100.807C767.573 100.03 768.352 99.0322 768.867 97.8961C769.383 96.7599 769.621 95.5178 769.563 94.2718C769.595 93.1956 769.402 92.1245 768.995 91.1272C768.589 90.1298 767.979 89.2281 767.203 88.4797C765.514 86.8858 763.545 85.6151 761.396 84.7308C758.201 83.4271 754.935 82.3028 751.615 81.363C746.486 79.8519 741.478 77.9597 736.633 75.7022C732.675 73.7554 729.242 70.891 726.62 67.3483C723.829 63.6618 722.433 58.8549 722.433 52.9274C722.433 44.1258 725.629 37.2298 732.02 32.2396C738.412 27.2493 746.735 24.75 756.99 24.7417C767.42 24.7417 775.833 27.241 782.229 32.2396C788.625 37.2381 792.044 44.1778 792.486 53.0586H767.516C767.492 51.6887 767.179 50.3394 766.598 49.0982C766.016 47.857 765.18 46.7518 764.143 45.8544C762.057 44.0966 759.402 43.2198 756.177 43.2239C753.386 43.2239 751.137 43.9654 749.431 45.4483C747.724 46.9312 746.869 49.0639 746.865 51.8465C746.865 54.9039 748.304 57.2866 751.183 58.9944C754.061 60.7023 758.561 62.5434 764.682 64.5178C769.776 66.1703 774.757 68.1509 779.595 70.4474C783.488 72.3914 786.881 75.2025 789.514 78.6638C792.305 82.2586 793.7 86.8864 793.7 92.5473C793.758 97.7336 792.329 102.828 789.582 107.231C786.837 111.634 782.855 115.139 777.636 117.746C772.417 120.354 766.254 121.656 759.149 121.652C752.224 121.652 746.018 120.529 740.531 118.284Z" fill="#494949"/>
<path d="M559.016 154.585C559.693 153.652 560.614 152.893 561.781 152.31C562.971 151.703 564.289 151.4 565.736 151.4C567.439 151.4 568.979 151.808 570.356 152.625C571.733 153.442 572.818 154.608 573.611 156.125C574.404 157.618 574.801 159.333 574.801 161.27C574.801 163.207 574.404 164.945 573.611 166.485C572.818 168.002 571.721 169.192 570.321 170.055C568.944 170.895 567.416 171.315 565.736 171.315C564.243 171.315 562.913 171.023 561.746 170.44C560.603 169.857 559.693 169.11 559.016 168.2V171H555.026V145.1H559.016V154.585ZM570.741 161.27C570.741 159.94 570.461 158.797 569.901 157.84C569.364 156.86 568.641 156.125 567.731 155.635C566.844 155.122 565.888 154.865 564.861 154.865C563.858 154.865 562.901 155.122 561.991 155.635C561.104 156.148 560.381 156.895 559.821 157.875C559.284 158.855 559.016 160.01 559.016 161.34C559.016 162.67 559.284 163.837 559.821 164.84C560.381 165.82 561.104 166.567 561.991 167.08C562.901 167.593 563.858 167.85 564.861 167.85C565.888 167.85 566.844 167.593 567.731 167.08C568.641 166.543 569.364 165.773 569.901 164.77C570.461 163.767 570.741 162.6 570.741 161.27Z" fill="#494949"/>
<path d="M596.107 151.715L584.277 180.065H580.147L584.067 170.685L576.472 151.715H580.917L586.342 166.415L591.977 151.715H596.107Z" fill="#494949"/>
<path d="M617.94 151.4C619.456 151.4 620.81 151.715 622 152.345C623.213 152.975 624.158 153.908 624.835 155.145C625.511 156.382 625.85 157.875 625.85 159.625V171H621.895V160.22C621.895 158.493 621.463 157.175 620.6 156.265C619.736 155.332 618.558 154.865 617.065 154.865C615.571 154.865 614.381 155.332 613.495 156.265C612.631 157.175 612.2 158.493 612.2 160.22V171H608.21V151.715H612.2V153.92C612.853 153.127 613.681 152.508 614.685 152.065C615.711 151.622 616.796 151.4 617.94 151.4Z" fill="#494949"/>
<path d="M648.404 151.715V171H644.414V168.725C643.784 169.518 642.956 170.148 641.929 170.615C640.926 171.058 639.853 171.28 638.709 171.28C637.193 171.28 635.828 170.965 634.614 170.335C633.424 169.705 632.479 168.772 631.779 167.535C631.103 166.298 630.764 164.805 630.764 163.055V151.715H634.719V162.46C634.719 164.187 635.151 165.517 636.014 166.45C636.878 167.36 638.056 167.815 639.549 167.815C641.043 167.815 642.221 167.36 643.084 166.45C643.971 165.517 644.414 164.187 644.414 162.46V151.715H648.404Z" fill="#494949"/>
<path d="M660.669 171.315C659.152 171.315 657.787 171.047 656.574 170.51C655.384 169.95 654.439 169.203 653.739 168.27C653.039 167.313 652.665 166.252 652.619 165.085H656.749C656.819 165.902 657.204 166.59 657.904 167.15C658.627 167.687 659.525 167.955 660.599 167.955C661.719 167.955 662.582 167.745 663.189 167.325C663.819 166.882 664.134 166.322 664.134 165.645C664.134 164.922 663.784 164.385 663.084 164.035C662.407 163.685 661.322 163.3 659.829 162.88C658.382 162.483 657.204 162.098 656.294 161.725C655.384 161.352 654.59 160.78 653.914 160.01C653.26 159.24 652.934 158.225 652.934 156.965C652.934 155.938 653.237 155.005 653.844 154.165C654.45 153.302 655.314 152.625 656.434 152.135C657.577 151.645 658.884 151.4 660.354 151.4C662.547 151.4 664.309 151.96 665.639 153.08C666.992 154.177 667.715 155.682 667.809 157.595H663.819C663.749 156.732 663.399 156.043 662.769 155.53C662.139 155.017 661.287 154.76 660.214 154.76C659.164 154.76 658.359 154.958 657.799 155.355C657.239 155.752 656.959 156.277 656.959 156.93C656.959 157.443 657.145 157.875 657.519 158.225C657.892 158.575 658.347 158.855 658.884 159.065C659.42 159.252 660.214 159.497 661.264 159.8C662.664 160.173 663.807 160.558 664.694 160.955C665.604 161.328 666.385 161.888 667.039 162.635C667.692 163.382 668.03 164.373 668.054 165.61C668.054 166.707 667.75 167.687 667.144 168.55C666.537 169.413 665.674 170.09 664.554 170.58C663.457 171.07 662.162 171.315 660.669 171.315Z" fill="#494949"/>
<path d="M671.035 161.27C671.035 159.333 671.432 157.618 672.225 156.125C673.042 154.632 674.138 153.477 675.515 152.66C676.915 151.82 678.455 151.4 680.135 151.4C681.652 151.4 682.97 151.703 684.09 152.31C685.233 152.893 686.143 153.628 686.82 154.515V151.715H690.845V171H686.82V168.13C686.143 169.04 685.222 169.798 684.055 170.405C682.888 171.012 681.558 171.315 680.065 171.315C678.408 171.315 676.892 170.895 675.515 170.055C674.138 169.192 673.042 168.002 672.225 166.485C671.432 164.945 671.035 163.207 671.035 161.27ZM686.82 161.34C686.82 160.01 686.54 158.855 685.98 157.875C685.443 156.895 684.732 156.148 683.845 155.635C682.958 155.122 682.002 154.865 680.975 154.865C679.948 154.865 678.992 155.122 678.105 155.635C677.218 156.125 676.495 156.86 675.935 157.84C675.398 158.797 675.13 159.94 675.13 161.27C675.13 162.6 675.398 163.767 675.935 164.77C676.495 165.773 677.218 166.543 678.105 167.08C679.015 167.593 679.972 167.85 680.975 167.85C682.002 167.85 682.958 167.593 683.845 167.08C684.732 166.567 685.443 165.82 685.98 164.84C686.54 163.837 686.82 162.67 686.82 161.34Z" fill="#494949"/>
<path d="M705.816 151.4C707.332 151.4 708.686 151.715 709.876 152.345C711.089 152.975 712.034 153.908 712.711 155.145C713.387 156.382 713.726 157.875 713.726 159.625V171H709.771V160.22C709.771 158.493 709.339 157.175 708.476 156.265C707.612 155.332 706.434 154.865 704.941 154.865C703.447 154.865 702.257 155.332 701.371 156.265C700.507 157.175 700.076 158.493 700.076 160.22V171H696.086V151.715H700.076V153.92C700.729 153.127 701.557 152.508 702.561 152.065C703.587 151.622 704.672 151.4 705.816 151.4Z" fill="#494949"/>
<path d="M723.47 154.97V165.645C723.47 166.368 723.634 166.893 723.96 167.22C724.31 167.523 724.894 167.675 725.71 167.675H728.16V171H725.01C723.214 171 721.837 170.58 720.88 169.74C719.924 168.9 719.445 167.535 719.445 165.645V154.97H717.17V151.715H719.445V146.92H723.47V151.715H728.16V154.97H723.47Z" fill="#494949"/>
<path d="M749.513 160.885C749.513 161.608 749.466 162.262 749.373 162.845H734.638C734.754 164.385 735.326 165.622 736.353 166.555C737.379 167.488 738.639 167.955 740.133 167.955C742.279 167.955 743.796 167.057 744.683 165.26H748.988C748.404 167.033 747.343 168.492 745.803 169.635C744.286 170.755 742.396 171.315 740.133 171.315C738.289 171.315 736.633 170.907 735.163 170.09C733.716 169.25 732.573 168.083 731.733 166.59C730.916 165.073 730.508 163.323 730.508 161.34C730.508 159.357 730.904 157.618 731.698 156.125C732.514 154.608 733.646 153.442 735.093 152.625C736.563 151.808 738.243 151.4 740.133 151.4C741.953 151.4 743.574 151.797 744.998 152.59C746.421 153.383 747.529 154.503 748.323 155.95C749.116 157.373 749.513 159.018 749.513 160.885ZM745.348 159.625C745.324 158.155 744.799 156.977 743.773 156.09C742.746 155.203 741.474 154.76 739.958 154.76C738.581 154.76 737.403 155.203 736.423 156.09C735.443 156.953 734.859 158.132 734.673 159.625H745.348Z" fill="#494949"/>
<path d="M752.109 161.34C752.109 159.357 752.506 157.618 753.299 156.125C754.116 154.608 755.236 153.442 756.659 152.625C758.083 151.808 759.716 151.4 761.559 151.4C763.893 151.4 765.818 151.96 767.334 153.08C768.874 154.177 769.913 155.752 770.449 157.805H766.144C765.794 156.848 765.234 156.102 764.464 155.565C763.694 155.028 762.726 154.76 761.559 154.76C759.926 154.76 758.619 155.343 757.639 156.51C756.683 157.653 756.204 159.263 756.204 161.34C756.204 163.417 756.683 165.038 757.639 166.205C758.619 167.372 759.926 167.955 761.559 167.955C763.869 167.955 765.398 166.94 766.144 164.91H770.449C769.889 166.87 768.839 168.433 767.299 169.6C765.759 170.743 763.846 171.315 761.559 171.315C759.716 171.315 758.083 170.907 756.659 170.09C755.236 169.25 754.116 168.083 753.299 166.59C752.506 165.073 752.109 163.323 752.109 161.34Z" fill="#494949"/>
<path d="M784.401 151.4C785.871 151.4 787.177 151.715 788.321 152.345C789.487 152.975 790.397 153.908 791.051 155.145C791.727 156.382 792.066 157.875 792.066 159.625V171H788.111V160.22C788.111 158.493 787.679 157.175 786.816 156.265C785.952 155.332 784.774 154.865 783.281 154.865C781.787 154.865 780.597 155.332 779.711 156.265C778.847 157.175 778.416 158.493 778.416 160.22V171H774.426V145.1H778.416V153.955C779.092 153.138 779.944 152.508 780.971 152.065C782.021 151.622 783.164 151.4 784.401 151.4Z" fill="#494949"/>
</svg>
